<svg xmlns="http://www.w3.org/2000/svg" width="525.686" height="493.672" viewBox="0 0 525.686 493.672"><defs><style>.a{fill:#f5f5f5;}.b{fill:#e6e6e6;}.c{fill:#e0e0e0;}.d{fill:#377772;}.e,.q{opacity:0.1;}.f{opacity:0.2;}.g{fill:#455a64;}.h{fill:#37474f;}.i{fill:#f0f0f0;}.j{fill:#263238;}.k{opacity:0.15;}.l{opacity:0.25;}.m{fill:#9e6767;}.n{fill:#ffa8a7;}.o,.v{fill:#fff;}.o{opacity:0.5;}.p{fill:#ebebeb;}.r{fill:#f28f8f;}.s{fill:#fafafa;}.t{fill:#874c4c;}.u{opacity:0.6;}</style></defs><g transform="translate(-23.693 -52.026)"><g transform="translate(23.692 281.928)"><path class="a" d="M100.7,475.129c-102.675-51.506-102.675-135.007,0-186.512s269.061-51.506,371.7,0,102.64,135.007,0,186.512S203.315,526.635,100.7,475.129Z" transform="translate(-23.693 -249.988)"/></g><g transform="translate(79.016 91.377)"><ellipse class="b" cx="71.04" cy="41.019" rx="71.04" ry="41.019" transform="translate(275.158 303.75)"/><path class="b" d="M286.765,365.9c7.7,4.436,7.7,11.613,0,16.073s-20.161,4.448-27.872,0-7.688-11.613,0-16.073S279.077,361.456,286.765,365.9Z" transform="translate(-41.999 -41.273)"/><path class="c" d="M77.566,191.408v18.779L122.58,184.2v25.991L161.346,187.8V169.017l-19.383,11.2V173l90.028-51.97v7.212L212.6,139.426l.012,44.77L231.991,173v7.212l-19.394,11.2.012,22.379-6.248,3.6V143.038l-38.766,22.379v25.991L116.332,221V195.008L77.566,217.387V392.1l38.766-22.391v-51.97l22.507-13V285.964l-38.766,22.379v48.37l-6.248,3.612V282.364l6.248-3.612v22.391l45.014-25.991v33.191l-22.507,13v44.77l19.383-11.2v7.212L71.33,402.912v-215.1l70.633-40.786v7.212Z" transform="translate(-71.33 -80.244)"/><path class="c" d="M254.485,301.015,180.728,343.6V317.622L138.838,341.8v-7.2l19.383-11.2V252.656l-45.014,25.979V252.656L90.7,265.64V236.049l6.248-3.6v22.379l83.78-48.37V184.079l6.248-3.6v74.349l38.766-22.379V210.07l6.236-3.612v81.573l-25.619,14.8v-7.212l19.383-11.2V239.661L180.728,265.64V213.67l-61.273,35.375v18.779l45.014-25.979v77.961l16.259-9.4V284.419l25.631-14.8v7.212l-19.383,11.2v44.758l61.273-35.375V148.7l-19.383,11.184v-7.2l19.383-11.2V96.722l-64.4,37.186V126.7L254.485,85.91Z" transform="translate(-68.205 -85.91)"/></g><g transform="translate(80.816 92.422)"><path class="d" d="M143.525,147.921,72.88,188.707v215.1l8.269,4.785,70.633-40.786V360.6l-8.28-4.785-11.1,6.411v-35.2l22.507-13V280.837l-8.28-4.785-36.71,21.206V284.484l-8.28-4.785-6.248,3.612v77.938l8.292,4.785,6.236-3.612V314.028l30.462-17.594v9.209l-22.507,13v51.97L87.408,388.215V223.048l30.485-17.594v16.433l8.292,4.785,51.25-29.591V171.1l30.485-17.594v64.78l8.28,4.785,6.248-3.6V197.092l19.383-11.207v-7.2l-8.292-4.785-11.091,6.411v-35.2l19.383-11.184v-7.212l-8.292-4.785L143.525,173.9v7.212l8.28,4.785,11.1-6.411V188.7L132.422,206.3V189.88l-8.3-4.785L87.408,206.3v-9.209l64.4-37.163v-7.2Z" transform="translate(-72.88 -81.144)"/><path class="d" d="M264.337,91.595l-8.292-4.785L185.412,127.6v7.212l8.28,4.785,56.116-32.4v35.2l-19.394,11.2v7.2l8.292,4.785,11.1-6.4V298.314L196.816,328.9V293.75l19.406-11.23v-7.212l-8.3-4.785-25.631,14.8V311.31l-7.978,4.645v-68.4l-8.28-4.785L129.3,263.973v-9.244l52.992-30.59v42.4l8.28,4.785L227.3,250.119v35.2l-19.383,11.2v7.212l8.28,4.785L241.83,293.75V212.143l-8.292-4.785L227.3,210.97V233.36l-30.485,17.594v-64.8l-8.292-4.773-6.236,3.6v22.379L106.8,250.943V238.168l-8.292-4.808-6.248,3.6v29.591l8.292,4.785,14.215-8.211v16.421l8.292,4.785,36.722-21.206v61.191L140.4,335.559v7.2l8.28,4.785,33.609-19.395V344.5l8.28,4.785L264.337,306.7Z" transform="translate(-69.753 -86.81)"/><g class="e"><path d="M151.805,149.095l-8.28-4.785L72.88,185.1l8.292,4.773Z" transform="translate(-72.88 -77.533)"/><path d="M180.75,132.381l-8.28-4.785L243.1,86.81l8.292,4.785Z" transform="translate(-56.811 -86.81)"/><path d="M130.4,181.1l-8.28-4.785L85.39,197.526v9.57Z" transform="translate(-70.862 -72.368)"/><path d="M154.635,179.42l8.28,4.785L124.15,206.6v-9.57Z" transform="translate(-64.608 -71.868)"/><path d="M232.018,126.715l-8.292-4.785L133.71,173.912l8.28,4.773Z" transform="translate(-63.065 -81.144)"/><path d="M219.512,150.65l19.383-11.2-8.28-4.785-19.394,11.2Z" transform="translate(-50.559 -79.088)"/><path d="M221.053,171.465l-8.292-4.785L201.7,173.033l-.035,9.628Z" transform="translate(-52.1 -73.923)"/><path d="M178.06,176.625l-8.28-4.785,6.236-3.6,8.292,4.773Z" transform="translate(-57.246 -73.672)"/><path d="M180.269,190.61,104.77,234.2v9.569l83.78-48.37Z" transform="translate(-67.735 -70.062)"/><path d="M106.788,217.775l-6.236,3.6L92.26,216.59l6.248-3.6Z" transform="translate(-69.753 -66.451)"/><path d="M100.552,266.137l6.236-3.612-8.28-4.785-6.248,3.612Z" transform="translate(-69.753 -59.231)"/><path d="M124.167,340.845l-8.292-4.785L85.39,353.666v9.558Z" transform="translate(-70.862 -46.594)"/><path d="M143.533,328.1l-8.28-4.785-11.1,6.411V339.3Z" transform="translate(-64.608 -48.65)"/><path d="M134.147,280.12l8.292,4.785-22.507,13-8.292-4.785Z" transform="translate(-66.626 -55.62)"/><path d="M149.784,259.425,104.77,285.416v-9.57L141.5,254.64Z" transform="translate(-67.735 -59.731)"/><path d="M124.15,251.846l45.014-25.991-8.28-4.785L124.15,242.276Z" transform="translate(-64.608 -65.148)"/><path d="M133.71,302.494l19.383-11.184,8.28,4.785L141.99,307.279Z" transform="translate(-63.065 -53.815)"/><path d="M170.888,280.12l8.28,4.785-16.259,9.384v-9.57Z" transform="translate(-58.354 -55.62)"/><path d="M169.78,259.8,195.411,245l8.28,4.785-25.631,14.8Z" transform="translate(-57.246 -61.287)"/><path d="M182.29,309.089l61.273-35.375-8.28-4.785L182.29,299.52Z" transform="translate(-55.227 -57.426)"/><path d="M219.513,262.525l-19.383,11.2-8.28-4.785,19.383-11.2Z" transform="translate(-53.685 -59.231)"/><path d="M221.056,217.775,182.29,240.154v-9.569l30.485-17.594Z" transform="translate(-55.227 -66.451)"/></g><g class="f" transform="translate(0 15.597)"><path d="M81.172,399.308V184.2L72.88,179.43v215.1Z" transform="translate(-72.88 -87.463)"/><path d="M180.75,133.927v-7.212l-8.28-4.785v7.212Z" transform="translate(-56.811 -96.74)"/><path d="M158.68,186.149V167.37l-8.28,4.785v9.209Z" transform="translate(-60.372 -89.409)"/><path d="M141.99,178.675v-7.212l-8.28-4.773v7.2Z" transform="translate(-63.065 -89.519)"/><path d="M236.2,145.01l-8.28-4.785v-35.2l8.28-4.785Z" transform="translate(-47.865 -100.24)"/><path d="M219.512,156.3v-7.2l-8.292-4.785v7.2Z" transform="translate(-50.559 -93.129)"/><path d="M197.44,219.349l-8.28-4.773V149.785L197.44,145Z" transform="translate(-54.119 -93.018)"/><path d="M178.06,198.5V176.125l-8.28-4.785v22.379Z" transform="translate(-57.246 -88.768)"/><path d="M100.552,250.466V220.875L92.26,216.09v29.591Z" transform="translate(-69.753 -81.548)"/><path d="M178.06,200.94l-8.28,4.785v42.4l8.28,4.785Z" transform="translate(-57.246 -83.992)"/><path d="M119.932,215.741V189.75l-8.292,4.785v16.421Z" transform="translate(-66.626 -85.798)"/><path d="M100.552,343.6V265.635L92.26,260.85v77.961Z" transform="translate(-69.753 -74.326)"/><path d="M119.932,348.065v-51.97l-8.292-4.785v51.97Z" transform="translate(-66.626 -69.412)"/><path d="M139.312,286.849V268.07l-8.292,4.785v9.209Z" transform="translate(-63.499 -73.161)"/><path d="M119.932,260.491V234.5l-8.292,4.785v16.421Z" transform="translate(-66.626 -78.578)"/><path d="M150.4,239.285l8.28-4.785v70.761l-8.28-4.785Z" transform="translate(-60.372 -78.578)"/><path d="M141.99,312.937l-8.28-4.785V300.94l8.28,4.785Z" transform="translate(-63.065 -67.858)"/><path d="M178.06,288.516V262.525l-8.28-4.785v25.991Z" transform="translate(-57.246 -74.828)"/><path d="M178.06,316.429V290.45l-8.28,4.785v16.41Z" transform="translate(-57.246 -69.55)"/><path d="M236.2,293.71V145l-8.28,4.785V288.926Z" transform="translate(-47.865 -93.018)"/><path d="M200.13,279.377v-7.212l-8.28-4.785v7.212Z" transform="translate(-53.685 -73.273)"/><path d="M216.82,268.08V223.31l-8.28,4.8V263.3Z" transform="translate(-50.992 -80.383)"/><path d="M216.82,220.884V198.5l-8.28-4.785V216.1Z" transform="translate(-50.992 -85.157)"/></g><path class="d" d="M86.256,196.428v18.779l45.014-25.991v25.991l38.766-22.391V174.037l-19.383,11.2V178.02l90.028-51.97v7.212L221.3,144.446v44.77l19.383-11.2v7.212l-19.383,11.2v22.379l-6.248,3.6V148.058l-38.766,22.379v25.991l-51.25,29.591V200.028L86.256,222.407v174.7l38.777-22.379v-51.97l22.507-13V290.984l-38.777,22.379v48.37l-6.236,3.612V287.384l6.236-3.612v22.391l45.014-25.991v33.191l-22.507,13v44.77l19.383-11.2v7.212L80.02,407.92v-215.1l70.633-40.775v7.2Z" transform="translate(-71.728 -80.479)"/><path class="d" d="M263.185,306.035l-73.769,42.587V322.642l-41.89,24.179v-7.212l19.383-11.184V257.665l-45,25.991V257.665l-22.507,13V241.069l6.236-3.6v22.379l83.78-48.37V189.1l6.248-3.612v74.361l38.766-22.379V215.09l6.248-3.612v81.561l-25.631,14.807v-7.212l19.383-11.2v-44.77L189.416,270.66V218.69l-61.273,35.375v18.779l45.014-25.991v77.961l16.259-9.384V289.439l25.631-14.8v7.212l-19.383,11.2v44.758l61.273-35.375V153.724l-19.383,11.184v-7.2l19.383-11.2v-44.77l-64.4,37.186v-7.212L263.185,90.93Z" transform="translate(-68.601 -86.145)"/></g><g transform="translate(97.493 118.689)"><path class="g" d="M156.71,327.331h0a1.37,1.37,0,0,1-1.37-1.37v-6.84a1.37,1.37,0,0,1,1.37-1.37h0a1.359,1.359,0,0,1,1.359,1.37v6.84a1.359,1.359,0,0,1-1.359,1.37Z" transform="translate(-76.252 -75.815)"/><path class="g" d="M157.535,314.641h0a1.37,1.37,0,0,1-1.37-1.37V308.8l-3.879,2.241a1.368,1.368,0,1,1-1.37-2.369l5.923-3.426a1.37,1.37,0,0,1,2.056,1.161v6.84a1.359,1.359,0,0,1-1.359,1.394Z" transform="translate(-77.077 -77.863)"/><path class="g" d="M139.187,318.5a1.368,1.368,0,0,1-.662-2.555l7.224-4.169a1.37,1.37,0,0,1,1.37,2.323l-7.235,4.169a1.278,1.278,0,0,1-.7.232Z" transform="translate(-79.076 -76.794)"/><path class="g" d="M127.84,325.442a1.475,1.475,0,0,1-.685-.186,1.37,1.37,0,0,1-.674-1.161v-6.887a1.37,1.37,0,1,1,2.729,0v4.471l3.879-2.241a1.366,1.366,0,1,1,1.359,2.369l-5.923,3.426a1.405,1.405,0,0,1-.685.209Z" transform="translate(-80.91 -76.144)"/><path class="g" d="M127.839,309.167a1.359,1.359,0,0,1-1.359-1.359v-6.84a1.37,1.37,0,0,1,.674-1.161l5.934-3.426a1.37,1.37,0,0,1,1.359,2.323l-5.238,3.054v6.051a1.359,1.359,0,0,1-1.37,1.359Z" transform="translate(-80.909 -79.276)"/><path class="g" d="M141.24,295.577a1.37,1.37,0,0,1-.685-2.555l5.273-2.973V284a1.37,1.37,0,1,1,2.729,0v6.84a1.37,1.37,0,0,1-.685,1.161l-5.923,3.414a1.324,1.324,0,0,1-.708.163Z" transform="translate(-78.748 -81.503)"/><path class="g" d="M146.34,276.144a1.359,1.359,0,0,1-1.359-1.37V262.208a1.37,1.37,0,1,1,2.729,0v12.647A1.37,1.37,0,0,1,146.34,276.144Z" transform="translate(-77.925 -85.018)"/><path class="g" d="M147.193,253.583a1.359,1.359,0,0,1-1.359-1.359v-4.471l-3.879,2.23a1.37,1.37,0,1,1-1.37-2.323l5.923-3.414a1.371,1.371,0,0,1,2.056,1.161v6.84A1.359,1.359,0,0,1,147.193,253.583Z" transform="translate(-78.778 -87.705)"/><path class="g" d="M122.66,261.3a1.37,1.37,0,0,1-.685-2.555l10.789-6.225a1.359,1.359,0,0,1,1.87.5,1.382,1.382,0,0,1-.5,1.87l-10.8,6.225a1.277,1.277,0,0,1-.674.186Z" transform="translate(-81.746 -86.371)"/><path class="g" d="M108.26,269.688a1.324,1.324,0,0,1-.685-.186,1.37,1.37,0,0,1-.685-1.161V261.5a1.37,1.37,0,1,1,2.741,0v4.471l3.867-2.23a1.37,1.37,0,1,1,1.37,2.323l-5.923,3.414a1.324,1.324,0,0,1-.685.209Z" transform="translate(-84.07 -85.112)"/><path class="g" d="M109.113,252.884a1.37,1.37,0,0,1-1.37-1.37v-4.471l-3.867,2.241a1.37,1.37,0,1,1-1.37-2.323l5.923-3.426a1.37,1.37,0,0,1,2.056,1.161v6.84a1.37,1.37,0,0,1-1.37,1.347Z" transform="translate(-84.922 -87.819)"/><path class="g" d="M88.61,258.32a1.429,1.429,0,0,1-.685-.174,1.382,1.382,0,0,1-.685-1.161V250.19a1.37,1.37,0,0,1,2.741,0v4.471l3.867-2.241a1.37,1.37,0,1,1,1.37,2.323L89.3,258.227A1.428,1.428,0,0,1,88.61,258.32Z" transform="translate(-87.24 -86.937)"/><path class="g" d="M88.61,242.278a1.359,1.359,0,0,1-1.37-1.312V228.19a1.37,1.37,0,1,1,2.741,0v12.775A1.359,1.359,0,0,1,88.61,242.278Z" transform="translate(-87.24 -90.487)"/><path class="g" d="M88.61,219.968a1.37,1.37,0,0,1-1.37-1.336v-6.84a1.382,1.382,0,0,1,.685-1.161l5.923-3.414a1.37,1.37,0,1,1,1.37,2.323l-5.238,3.02v6.074a1.37,1.37,0,0,1-1.37,1.336Z" transform="translate(-87.24 -93.703)"/><path class="g" d="M109.113,208.134a1.37,1.37,0,0,1-1.37-1.37v-4.471l-3.867,2.23a1.37,1.37,0,1,1-1.37-2.323l5.923-3.414a1.37,1.37,0,0,1,2.056,1.161v6.84a1.37,1.37,0,0,1-1.37,1.347Z" transform="translate(-84.922 -95.039)"/><path class="g" d="M108.26,224.616a1.429,1.429,0,0,1-.685-.174,1.394,1.394,0,0,1-.685-1.161v-6.84a1.37,1.37,0,1,1,2.741,0v4.471l3.867-2.241a1.37,1.37,0,0,1,1.37,2.323l-5.923,3.426a1.429,1.429,0,0,1-.685.2Z" transform="translate(-84.07 -92.382)"/><path class="g" d="M122.887,217.879a1.394,1.394,0,0,1-1.161-.685,1.37,1.37,0,0,1,.5-1.87l11.079-6.4a1.366,1.366,0,1,1,1.359,2.369l-11.068,6.4a1.44,1.44,0,0,1-.708.186ZM145.034,205.1a1.368,1.368,0,0,1-.662-2.555l11.068-6.387a1.37,1.37,0,0,1,1.37,2.323l-11.079,6.387a1.278,1.278,0,0,1-.7.221Z" transform="translate(-81.705 -95.447)"/><path class="g" d="M161.022,194.635a1.359,1.359,0,0,1-.685-2.543l5.238-3.031V183.01a1.37,1.37,0,0,1,2.741,0v6.84a1.382,1.382,0,0,1-.685,1.161l-5.923,3.484A1.463,1.463,0,0,1,161.022,194.635Z" transform="translate(-75.558 -97.776)"/><path class="g" d="M166.12,175.223a1.37,1.37,0,0,1-1.37-1.37v-6.84a1.382,1.382,0,0,1,.685-1.161l5.923-3.414a1.37,1.37,0,1,1,1.37,2.323l-5.238,3.02v6.051a1.37,1.37,0,0,1-1.37,1.394Z" transform="translate(-74.734 -100.928)"/><path class="g" d="M186.744,163.319a1.359,1.359,0,0,1-1.359-1.359v-4.448l-3.879,2.23a1.37,1.37,0,1,1-1.359-2.323L186.07,154a1.37,1.37,0,0,1,2.044,1.161v6.84a1.359,1.359,0,0,1-1.37,1.312Z" transform="translate(-72.397 -102.264)"/><path class="g" d="M185.89,211.97a1.359,1.359,0,0,1-1.359-1.37V197.779a1.37,1.37,0,1,1,2.729,0v12.775a1.37,1.37,0,0,1-1.37,1.417Zm0-25.689a1.359,1.359,0,0,1-1.359-1.359V172.078a1.37,1.37,0,1,1,2.729,0v12.844a1.359,1.359,0,0,1-1.37,1.359Z" transform="translate(-71.543 -99.56)"/><path class="g" d="M185.889,224.484a1.277,1.277,0,0,1-.674-.186,1.359,1.359,0,0,1-.685-1.161v-6.864a1.37,1.37,0,0,1,2.729,0V220.8l3.879-2.23A1.37,1.37,0,0,1,192.5,220.9l-5.923,3.414A1.289,1.289,0,0,1,185.889,224.484Z" transform="translate(-71.543 -92.389)"/><path class="g" d="M200.06,216.786a1.37,1.37,0,0,1-.685-2.555l5.238-3.031v-6.027a1.37,1.37,0,0,1,2.729,0v6.84a1.359,1.359,0,0,1-.685,1.161l-5.923,3.484A1.278,1.278,0,0,1,200.06,216.786Z" transform="translate(-69.257 -94.18)"/><path class="g" d="M205.189,197.445a1.359,1.359,0,0,1-1.359-1.37v-6.84a1.359,1.359,0,0,1,.685-1.161l5.923-3.426a1.37,1.37,0,1,1,1.359,2.323l-5.238,3.02v6.051a1.37,1.37,0,0,1-1.37,1.405Z" transform="translate(-68.429 -97.346)"/><path class="g" d="M219.432,183.3a1.359,1.359,0,0,1-.685-2.543L224,177.729v-6.051a1.37,1.37,0,1,1,2.729,0v6.84a1.359,1.359,0,0,1-.685,1.161l-5.923,3.484a1.429,1.429,0,0,1-.685.139Z" transform="translate(-66.134 -99.625)"/><path class="g" d="M225.324,163.365a1.359,1.359,0,0,1-1.359-1.37V157.5l-3.879,2.323a1.37,1.37,0,0,1-1.37-2.323l5.934-3.426a1.37,1.37,0,0,1,2.044,1.161v6.84A1.37,1.37,0,0,1,225.324,163.365Z" transform="translate(-66.103 -102.252)"/><path class="g" d="M205.189,168.66a1.277,1.277,0,0,1-.674-.186,1.359,1.359,0,0,1-.685-1.161v-6.84a1.37,1.37,0,0,1,2.729,0v4.471l3.879-2.23a1.37,1.37,0,1,1,1.359,2.323l-5.923,3.414a1.289,1.289,0,0,1-.685.209Z" transform="translate(-68.429 -101.392)"/><path class="g" d="M205.189,152.684a1.359,1.359,0,0,1-1.359-1.359v-6.84a1.359,1.359,0,0,1,.685-1.161l5.923-3.426a1.37,1.37,0,1,1,1.359,2.323l-5.238,3.031V151.3a1.359,1.359,0,0,1-1.37,1.382Z" transform="translate(-68.429 -104.566)"/><path class="g" d="M219.43,138.553a1.37,1.37,0,0,1-.685-2.555l5.249-3.019v-6.051a1.37,1.37,0,1,1,2.729,0v6.84a1.359,1.359,0,0,1-.685,1.161l-5.923,3.414A1.323,1.323,0,0,1,219.43,138.553Z" transform="translate(-66.132 -106.845)"/><path class="g" d="M225.324,118.942a1.359,1.359,0,0,1-1.359-1.359v-4.471l-3.879,2.23a1.37,1.37,0,0,1-1.37-2.323l5.934-3.414a1.37,1.37,0,0,1,2.044,1.161v6.84A1.359,1.359,0,0,1,225.324,118.942Z" transform="translate(-66.103 -109.427)"/><path class="g" d="M173.332,144.876a1.359,1.359,0,0,1-.685-2.543l13.39-7.735a1.37,1.37,0,0,1,1.37,2.323l-13.39,7.735a1.428,1.428,0,0,1-.685.221ZM200.1,129.441a1.37,1.37,0,0,1-.685-2.555l13.39-7.735a1.37,1.37,0,0,1,1.37,2.323l-13.39,7.735A1.324,1.324,0,0,1,200.1,129.441Z" transform="translate(-73.572 -107.872)"/><path class="g" d="M156.711,152.234a1.394,1.394,0,0,1-.685-.174,1.359,1.359,0,0,1-.685-1.161v-6.84a1.37,1.37,0,1,1,2.729,0v4.471l3.867-2.241a1.37,1.37,0,0,1,1.37,2.323l-5.923,3.484a1.463,1.463,0,0,1-.674.139Z" transform="translate(-76.253 -104.081)"/><path class="g" d="M156.71,135.464a1.37,1.37,0,0,1-1.37-1.37v-6.84a1.37,1.37,0,0,1,2.729,0v6.875a1.359,1.359,0,0,1-1.359,1.336Z" transform="translate(-76.252 -106.752)"/></g><g transform="translate(146.943 63.913)"><path class="c" d="M152.5,79.041c-6.678,3.867-12.1,14.215-12.1,23.122,0,12.775,7.932,10.359,7.932,15.516a1.44,1.44,0,0,0,1.219,1.568c1.626.314,4.274-1.161,5.9-3.4a5.389,5.389,0,0,0,1.161-2.985h0c0-5.156,7.932-11.857,7.932-24.667C164.6,79.285,159.179,75.186,152.5,79.041Zm6.968,17.083a5.5,5.5,0,0,1-2.787,2.706c-.256,1-.511,2.172-.743,3.484a71.072,71.072,0,0,0-1,11.451,1.161,1.161,0,0,1-.488.964h0c-.267.163-.488,0-.5-.36a72.137,72.137,0,0,1,1.08-11.764c.209-1.277.465-2.462.732-3.484a3.716,3.716,0,0,1-1.277-.093,4.309,4.309,0,0,1-1.951-1.068,22.068,22.068,0,0,1-1.951,3.321,15.1,15.1,0,0,1-1.277,1.568,20.554,20.554,0,0,1,.732,2.694,54.73,54.73,0,0,1,1.034,10.626,1.161,1.161,0,0,1-.511.941c-.279.151-.5,0-.488-.395a54.919,54.919,0,0,0-1-10.29,17.865,17.865,0,0,0-.755-2.683c-1.219.941-2.207,1.022-2.776.523a2.323,2.323,0,0,1-.221-2.625,2.543,2.543,0,0,1,1.359-1.545c.79-.244,1.556.383,2.218,1.765a12.272,12.272,0,0,0,1.161-1.405,20.441,20.441,0,0,0,1.858-3.217,4.564,4.564,0,0,1-.732-3.321,3.112,3.112,0,0,1,1.347-2.1c.662-.383,1.161-.174,1.347.546a8.42,8.42,0,0,1-.732,4.169,3.844,3.844,0,0,0,1.858,1.057,3.078,3.078,0,0,0,1.161.07,9.767,9.767,0,0,1,2.218-4.32c.523-.43,1.01-.441,1.359,0a2.938,2.938,0,0,1-.256,2.787Z" transform="translate(-128.113 -59.788)"/><path class="c" d="M155.727,109.36v4.1a5.517,5.517,0,0,1-1.266,3.078c-1.672,2.253-4.413,3.832-6.085,3.484a1.486,1.486,0,0,1-1.243-1.73v-3.658a1.463,1.463,0,0,0,1.243,1.277c1.672.325,4.413-1.254,6.085-3.484a5.458,5.458,0,0,0,1.266-3.066Z" transform="translate(-127.03 -54.662)"/><path class="h" d="M157.2,110.26a5.458,5.458,0,0,1-1.266,3.066,8.931,8.931,0,0,1-5.063,3.484l-2.323-1.312v3.751a1.591,1.591,0,0,0,.674,1.521l4.274,2.462a1.451,1.451,0,0,0,.534.186c1.672.325,4.4-1.254,6.074-3.484a5.517,5.517,0,0,0,1.266-3.078v-4.1Z" transform="translate(-126.8 -54.517)"/><path class="g" d="M149.283,120.014l4.274,2.462a1.451,1.451,0,0,0,.534.186,2.752,2.752,0,0,0,.546,0l-1.8-1.765V117.2l-1.963-1.161h0l-2.323-1.312v3.8A1.591,1.591,0,0,0,149.283,120.014Z" transform="translate(-126.799 -53.796)"/><path class="g" d="M161.89,79.316c-2.125-1.231-4.889-1.161-7.92.627-6.678,3.856-12.09,14.215-12.09,23.122,0,12.775,7.92,10.359,7.92,15.516a1.5,1.5,0,0,0,.685,1.37l4.227,2.439a1.544,1.544,0,0,0,.534.2c1.637.314,4.274-1.161,5.911-3.4a5.389,5.389,0,0,0,1.219-2.985c0-5.156,7.92-11.857,7.92-24.667,0-4.866-1.614-8.3-4.181-9.779Z" transform="translate(-127.874 -59.645)"/><path class="d" d="M161.242,95.292a7.456,7.456,0,0,0-1.382,2.81,3.763,3.763,0,0,0,1.6-1.638c.093-.186.383-.836.139-1.161a.221.221,0,0,0-.36-.012Z" transform="translate(-124.973 -56.946)"/><path class="d" d="M155.907,94.1a.755.755,0,0,0-.383.581,3.078,3.078,0,0,0,.383,1.963,5.389,5.389,0,0,0,.383-2.4C156.244,94.051,156.163,93.993,155.907,94.1Z" transform="translate(-125.677 -57.133)"/><path class="d" d="M150.7,101.293h-.07a.766.766,0,0,0-.279.418.79.79,0,0,0,.139.976c.314.267.883.256,1.591-.221C151.551,101.513,151.04,101.188,150.7,101.293Z" transform="translate(-126.524 -55.967)"/><path class="d" d="M157.61,82.041c-6.678,3.867-12.09,14.215-12.09,23.122,0,12.775,7.92,10.359,7.92,15.516a1.44,1.44,0,0,0,1.161,1.568c1.638.314,4.274-1.161,5.911-3.4a5.388,5.388,0,0,0,1.219-2.985h0c0-5.156,7.92-11.857,7.92-24.667C169.711,82.285,164.3,78.186,157.61,82.041Zm6.968,17.083a5.551,5.551,0,0,1-2.787,2.706c-.267,1-.523,2.172-.743,3.484a69.5,69.5,0,0,0-1,11.451,1.243,1.243,0,0,1-.5.964h0c-.279.163-.5,0-.5-.36a71.292,71.292,0,0,1,1.022-11.811c.221-1.277.465-2.474.743-3.484a3.682,3.682,0,0,1-1.277-.093,4.413,4.413,0,0,1-1.963-1.068,21.66,21.66,0,0,1-1.951,3.321,12.565,12.565,0,0,1-1.277,1.568,19.951,19.951,0,0,1,.743,2.694,54.2,54.2,0,0,1,1.022,10.615,1.243,1.243,0,0,1-.5.952c-.279.151-.5,0-.5-.395a53.806,53.806,0,0,0-1-10.29,18.009,18.009,0,0,0-.743-2.683c-1.219.941-2.207,1.01-2.787.523a2.323,2.323,0,0,1-.209-2.625,2.509,2.509,0,0,1,1.359-1.545c.79-.244,1.556.383,2.207,1.765a12.067,12.067,0,0,0,1.161-1.405,20.174,20.174,0,0,0,1.87-3.217,4.506,4.506,0,0,1-.732-3.321,3.054,3.054,0,0,1,1.336-2.1c.674-.383,1.161-.174,1.347.546a8.129,8.129,0,0,1-.732,4.169,3.891,3.891,0,0,0,1.87,1.057,3.066,3.066,0,0,0,1.161.07A9.663,9.663,0,0,1,163.5,96.28c.523-.43,1.022-.441,1.359,0a2.938,2.938,0,0,1-.2,2.845Z" transform="translate(-127.287 -59.304)"/><path class="d" d="M160.837,112.36v4.1a5.516,5.516,0,0,1-1.266,3.078c-1.672,2.253-4.4,3.832-6.074,3.484a1.51,1.51,0,0,1-1.254-1.73V117.6a1.487,1.487,0,0,0,1.254,1.324c1.672.325,4.4-1.254,6.074-3.484A5.459,5.459,0,0,0,160.837,112.36Z" transform="translate(-126.205 -54.178)"/><path class="h" d="M154.666,120.174c-.627-.36-4.041-2.323-4.181-2.4a1.5,1.5,0,0,1-.685-1.37c0-5.156-7.92-2.706-7.92-15.516A27.872,27.872,0,0,1,143.471,92c1.463.848,3.356,1.951,4.227,2.439a27.872,27.872,0,0,0-1.591,8.919c0,12.775,7.92,10.359,7.92,15.516a1.487,1.487,0,0,0,.639,1.3Z" transform="translate(-127.874 -57.463)"/><path class="h" d="M153.464,116.487a1.544,1.544,0,0,1-.534-.2A1.823,1.823,0,0,0,153.464,116.487Z" transform="translate(-126.091 -53.544)"/><path class="i" d="M152.974,75.5c-.569.337-1.034,0-1.034-.778V66.792a2.485,2.485,0,0,1,1.034-1.974c.569-.325,1.034,0,1.034.778v7.92A2.462,2.462,0,0,1,152.974,75.5Z" transform="translate(-126.251 -61.869)"/><path class="i" d="M145.4,82.566c-.5.662-1.161.8-1.405.314l-2.973-5.145a2.16,2.16,0,0,1,.372-2.09c.5-.662,1.161-.8,1.417-.314l2.961,5.145A2.16,2.16,0,0,1,145.4,82.566Z" transform="translate(-128.033 -60.2)"/><path class="i" d="M139.84,93.169c-.279.825-.906,1.405-1.405,1.312l-5.133-.987c-.5-.093-.662-.836-.383-1.661s.917-1.405,1.405-1.312l5.145.987C140,91.6,140.131,92.345,139.84,93.169Z" transform="translate(-129.342 -57.704)"/><path class="i" d="M137.81,104.925a2.485,2.485,0,0,1-1.022,1.974l-5.946,3.484c-.569.325-1.022,0-1.022-.778a2.45,2.45,0,0,1,1.022-1.974l5.946-3.484C137.357,103.822,137.81,104.17,137.81,104.925Z" transform="translate(-129.82 -55.523)"/><path class="i" d="M139.838,114.352a2.16,2.16,0,0,1-.372,2.09l-5.145,6.968c-.488.662-1.161.8-1.405.314a2.16,2.16,0,0,1,.383-2.09l5.133-6.968C138.932,113.992,139.559,113.852,139.838,114.352Z" transform="translate(-129.34 -53.905)"/><path class="i" d="M166.819,98.365c.29-.825.917-1.417,1.405-1.324l5.145,1c.488.093.662.836.372,1.649s-.906,1.417-1.405,1.324l-5.133-.987C166.7,99.921,166.54,99.178,166.819,98.365Z" transform="translate(-123.872 -56.652)"/><path class="i" d="M169,86.956a2.462,2.462,0,0,1,1.034-1.974l5.934-3.484c.569-.325,1.034,0,1.034.778a2.5,2.5,0,0,1-1.034,1.974l-5.934,3.426C169.418,88.059,169,87.711,169,86.956Z" transform="translate(-123.498 -59.178)"/><path class="i" d="M166.816,78.014a2.172,2.172,0,0,1,.383-2.09l5.133-6.968c.5-.674,1.161-.813,1.405-.314a2.16,2.16,0,0,1-.372,2.09L168.222,77.7C167.734,78.4,167.107,78.513,166.816,78.014Z" transform="translate(-123.87 -61.281)"/><path class="i" d="M160.972,73.815c-.5-.093-.662-.836-.383-1.661l2.973-8.571c.279-.825.906-1.405,1.405-1.312s.662.836.372,1.661L162.377,72.5C162.087,73.316,161.46,73.908,160.972,73.815Z" transform="translate(-124.877 -62.262)"/><g transform="translate(18.222 309.432)"><path class="c" d="M154.661,361.218a2.4,2.4,0,0,1,2.741-.116,3.379,3.379,0,0,1,1.161,2.9,8.9,8.9,0,0,1-1.161,4.2,7.375,7.375,0,0,1-2.694,3.043,2.323,2.323,0,0,1-2.694.07,3.484,3.484,0,0,1-1.161-2.915,8.931,8.931,0,0,1,1.161-4.181A7.131,7.131,0,0,1,154.661,361.218Z" transform="translate(-144.65 -323.538)"/><path class="c" d="M151.317,346.038l-5.807,3.321a22.379,22.379,0,0,1,2.9-11,20.509,20.509,0,0,1,7.758-8.129,8.78,8.78,0,0,1,5.284-1.521,4.646,4.646,0,0,1,3.484,2.381,9.907,9.907,0,0,1,1.3,5.284,16.967,16.967,0,0,1-.418,3.635,26.711,26.711,0,0,1-1.312,4.192,49.931,49.931,0,0,1-2.532,4.924,48.355,48.355,0,0,0-2.392,4.645,16.552,16.552,0,0,0-.813,3.008,31.475,31.475,0,0,0-.418,4.645L152.4,364.91V363.6a28.488,28.488,0,0,1,1.08-7.758,35.469,35.469,0,0,1,3.484-8.037,50.473,50.473,0,0,0,2.81-5.377,7.607,7.607,0,0,0,.488-2.683,2.567,2.567,0,0,0-1.161-2.508c-.778-.418-1.835-.244-3.147.523a8.908,8.908,0,0,0-3.321,3.484A10.069,10.069,0,0,0,151.317,346.038Z" transform="translate(-145.51 -328.704)"/><path class="d" d="M160.533,364.148a2.4,2.4,0,0,1,2.741-.116,3.333,3.333,0,0,1,1.161,2.892,9.012,9.012,0,0,1-1.161,4.216,7.317,7.317,0,0,1-2.706,3.043,2.323,2.323,0,0,1-2.694.07,3.484,3.484,0,0,1-1.161-2.915,8.92,8.92,0,0,1,1.092-4.181,7.2,7.2,0,0,1,2.729-3.008Z" transform="translate(-143.705 -323.065)"/><path class="g" d="M158.686,374.3h0l-4.251-2.45-.232-.151a3.484,3.484,0,0,1-1.161-2.927,9,9,0,0,1,1.161-4.181l.151-.29,4.262,2.462-.163.29a8.919,8.919,0,0,0-1.092,4.181,3.484,3.484,0,0,0,1.1,2.915Z" transform="translate(-144.297 -322.961)"/><path class="h" d="M163.476,364.259a2.462,2.462,0,0,0-2.567.221,6.887,6.887,0,0,0-2.5,2.718l-4.262-2.462a7.142,7.142,0,0,1,2.323-2.6l.174-.1a3.484,3.484,0,0,1,1.161-.453,2.009,2.009,0,0,1,1.405.221l.279.163,3.972,2.323Z" transform="translate(-144.116 -323.408)"/><path class="d" d="M157.157,348.968l-5.807,3.321a22.252,22.252,0,0,1,2.9-11,20.509,20.509,0,0,1,7.758-8.129,8.745,8.745,0,0,1,5.272-1.521,4.645,4.645,0,0,1,3.484,2.381,9.906,9.906,0,0,1,1.312,5.284,16.967,16.967,0,0,1-.418,3.635,27.186,27.186,0,0,1-1.324,4.192,51.724,51.724,0,0,1-2.52,4.924,49.413,49.413,0,0,0-2.4,4.645,17.55,17.55,0,0,0-.813,3.008,31.475,31.475,0,0,0-.418,4.645l-5.958,3.484v-1.3a28.487,28.487,0,0,1,1.08-7.758,35.769,35.769,0,0,1,3.484-8.048,46.447,46.447,0,0,0,2.81-5.365,7.606,7.606,0,0,0,.488-2.683,2.59,2.59,0,0,0-1.161-2.509c-.79-.418-1.835-.244-3.159.523a8.908,8.908,0,0,0-3.321,3.484,10.057,10.057,0,0,0-1.289,4.785Z" transform="translate(-144.568 -328.232)"/><path class="g" d="M169.2,332.482a4.379,4.379,0,0,0-1.649-.534,8.745,8.745,0,0,0-5.273,1.521,20.51,20.51,0,0,0-7.758,8.129l-.244.441L150,339.624c.07-.151.151-.3.232-.453a20.579,20.579,0,0,1,7.758-8.129,8.861,8.861,0,0,1,5.284-1.521,4.565,4.565,0,0,1,1.707.569Z" transform="translate(-144.786 -328.574)"/><path class="g" d="M164.859,344.535q-.732,1.5-2.4,4.425a35.769,35.769,0,0,0-3.484,8.048,29.161,29.161,0,0,0-1.08,7.723h0v1.3l-1.347-.778-2.9-1.672v-1.312a28.488,28.488,0,0,1,1.08-7.758,35.7,35.7,0,0,1,3.484-8.037c1.161-1.951,1.916-3.426,2.392-4.425Z" transform="translate(-144.198 -326.551)"/><path class="h" d="M154.64,340.67a22.251,22.251,0,0,0-2.659,10.557l-4.251-2.45a21.984,21.984,0,0,1,2.659-10.557Z" transform="translate(-145.152 -327.169)"/><path class="h" d="M164.786,341.445a7.5,7.5,0,0,1-.488,2.671,7.676,7.676,0,0,1-.406.952l-4.262-2.45c.186-.395.325-.708.418-.952a7.491,7.491,0,0,0,.465-2.241,3.263,3.263,0,0,1,3.1-.488,2.59,2.59,0,0,1,1.173,2.508Z" transform="translate(-143.232 -327.085)"/></g></g><g transform="translate(206.515 52.026)"><g transform="translate(0 2.577)"><path class="g" d="M181.272,379.892a19.337,19.337,0,0,0,4.343,4.251,39.487,39.487,0,0,0,5.435,3.345,61.92,61.92,0,0,0,11.428,4.866,25.969,25.969,0,0,0,12.438.813,13.112,13.112,0,0,0,5.5-2.532,8.466,8.466,0,0,0,2.95-5.458c.337-2.067.2-4.251,1.022-6.225a7.479,7.479,0,0,1,3.217-3.484c3.484-1.986,7.491-1.6,11.114-.372,2.183.755,4.274,1.754,6.376,2.706s4.355,1.881,6.573,2.706a67.619,67.619,0,0,0,14.3,3.716c4.332.592,9.058.825,13.158-.918,3.391-1.452,6.364-4.924,6.144-8.78a6.969,6.969,0,0,0-.848-3,1.161,1.161,0,0,0-1.161-.72.72.72,0,0,0-.511.952c1,3.635-1.417,7.421-4.645,8.989-3.8,1.835-8.222,1.533-12.287,1.022a63.874,63.874,0,0,1-13.448-3.368c-2.137-.766-4.227-1.614-6.306-2.52s-4.053-1.835-6.143-2.59c-3.786-1.359-7.92-2.16-11.823-.778a10.986,10.986,0,0,0-4.32,2.706,9,9,0,0,0-2.323,5.122c-.29,2-.139,4.111-.906,6a7.5,7.5,0,0,1-3.821,3.763c-3.542,1.73-7.758,1.638-11.613.976a48.95,48.95,0,0,1-11.056-3.635c-3.728-1.614-7.618-3.217-10.7-5.923a21.136,21.136,0,0,1-2.009-1.939c-.151-.174-.3.186-.209.3Z" transform="translate(-181.115 -3.169)"/><g transform="translate(160.603 175.358)"><path class="j" d="M412.069,374.58a13.251,13.251,0,0,1,1.394,6.805c-.116,2.056-1.347,4.715-.79,9.349s1.614,6.1,2.1,9.384a11.5,11.5,0,0,1-1.8,8.71c-1.916,3.112-6.155,5.586-14.517,5.284-6.759-.244-9.477-3.7-9.628-7.677Z" transform="translate(-308.204 -177.918)"/><path class="h" d="M410.117,366.361a15.89,15.89,0,0,1,.406,2.625c.255,1.568.72,3.066,1.092,4.645q.151.616.279,1.219c.65,3.1,0,6.318,0,9.477a52.827,52.827,0,0,0,1.951,11.044c1.521,6.562,1.765,10.952-3.983,15.5-3.031,2.392-6.341,2.485-10.185,2.59-2.915.07-6.736-.778-8.455-2.056-2.462-1.812-2.427-3.333-2.45-3.914-.221-6.968,2.323-15.1,2.8-22.066a34,34,0,0,0,.128-5.644c-.232-2.323-1.045-4.645-1.289-6.968a3.914,3.914,0,0,1,.325-2.555,4.077,4.077,0,0,1,3.089-1.394c3.066-.406,6.132-.708,9.2-.929a2.811,2.811,0,0,1,2.09.418,3.8,3.8,0,0,1,.766,2.23c.163.79.743,1.672,1.533,1.533a1.336,1.336,0,0,0,.929-1.161c.081-.523.3-4.564.279-5.087C408.666,365.873,409.757,365.7,410.117,366.361Z" transform="translate(-308.216 -179.326)"/><path class="j" d="M319.771,387.259a5.215,5.215,0,0,0,0,3.832c.488,1.161,6.2,4.645,14.11,4.471a32.819,32.819,0,0,0,16.607-5.075c3.089-1.87,6.236-2.114,10.15-2.183s8.5-1.475,9.837-3.252a9.29,9.29,0,0,0,0-5.273Z" transform="translate(-319.406 -177.079)"/><path class="h" d="M348.358,366.3a16.936,16.936,0,0,0-.825,1.73,14.04,14.04,0,0,1-4.343,5.423,44.643,44.643,0,0,1-8.733,4.715,59.083,59.083,0,0,1-5.946,1.8,33.77,33.77,0,0,0-6.4,2.81c-3.182,1.963-3.8,7.189-.348,9.4,2.961,1.916,10.893,4.169,19.395,2.137,4.645-1.161,9.895-5.807,15.922-6.016,3.832-.151,11.091-.929,13.669-3.728.952-4.181-.081-5.377-.941-8.931a29.37,29.37,0,0,1-.72-6.12c0-1.092.72-4.192-1.556-4.576l-.232,2.323s-.43.79-2.787,1.161c-.766.128-1.37,1.161-1.788,2.056-.314.708-.65,1.6-1.428,1.591a1.44,1.44,0,0,1-1.161-.929,10.929,10.929,0,0,1-.441-1.521,5.958,5.958,0,0,0-3.577-3.484,17.952,17.952,0,0,0-4.2-.883c-1.08-.163-1.974-.639-2.938.29A3.4,3.4,0,0,0,348.358,366.3Z" transform="translate(-319.401 -179.473)"/><path class="d" d="M405.072,213.3c2.927,28.558,4.088,42.134,7.839,99.109a164.083,164.083,0,0,1,5.714,32.75c.813,13.832,2.776,55.512,2.776,55.512s-11.149,9.151-24.063,4.924c0,0-11.672-61.249-15.748-80.365-3.9-18.349-7.862-41.4-7.862-41.4l-1.835,28.581s.523,11.381.163,28.372c-.2,9.093-4.576,58.288-4.576,58.288s-15.643,7.107-26.2-2.021c0,0-.767-79.773-.917-88.007-.186-9.372,1.428-103.8,1.428-103.8Z" transform="translate(-316.027 -205.24)"/><path class="k" d="M405.072,213.3c2.927,28.558,4.088,42.134,7.839,99.109a164.083,164.083,0,0,1,5.714,32.75c.813,13.832,2.776,55.512,2.776,55.512s-11.149,9.151-24.063,4.924c0,0-11.672-61.249-15.748-80.365-3.9-18.349-7.862-41.4-7.862-41.4l-1.835,28.581s.523,11.381.163,28.372c-.2,9.093-4.576,58.288-4.576,58.288s-15.643,7.107-26.2-2.021c0,0-.767-79.773-.917-88.007-.186-9.372,1.428-103.8,1.428-103.8Z" transform="translate(-316.027 -205.24)"/><path class="l" d="M372.724,279.42l-6.968-38.894s-12.357-1.08-19.185-7.967c0,0,1.219,6.759,16.747,10.812l6.306,32.448L370.947,308Z" transform="translate(-315.023 -200.832)"/><path class="l" d="M412.213,367.339a25.387,25.387,0,0,1-17.153,6.178s10.661-1.579,17.037-8.617Z" transform="translate(-307.199 -179.479)"/><path class="l" d="M366.941,367.14s-10.893,3.809-20.091.906c0,0,7.1,4.773,19.94.848Z" transform="translate(-314.978 -179.118)"/></g><g transform="translate(106.852 95.598)"><path class="m" d="M350.79,144.5c-4.645,6.5-18.465,32.378-22.066,40.032l-24.214-19.36c-2-2.543-1.986-7.862-5.412-12.9-3.786-5.574-2.253-11.056-4.971-10.313-1.5.406-2.392,2.323-2.323,3.972,0,3.217,1.533,7.258.267,6.968-1.893-.674-3.31-2.822-5.807-6.039-1.045-1.324-3.484-6.666-4.843-9.035a2.09,2.09,0,0,0-3.716-.244c-.348.743-.592,2.439-.929,3.147a7.1,7.1,0,0,1-1.44,1.452,7.176,7.176,0,0,0-1.5,1.405c-1.045,1.614-.07,3.391-.465,5.122-.79,3.554.372,7.165,2.079,10.266.767,1.405,1.51,2.857,2.323,4.2a30.521,30.521,0,0,0,6.724,7.316c2.323,1.916,5.04,2.973,7.258,5.005s8.547,9.407,13.355,14.633c7.932,8.64,14.923,16.654,17.42,18.268,6.19,4.018,11.9,4.645,18.686-3.287,8.129-9.523,23.308-33.8,23.308-33.8l3.252-33.447S356.2,136.688,350.79,144.5Z" transform="translate(-273.122 -136.561)"/><path class="j" d="M360.833,137.709c-7.189-1.092-13.263.267-17.757,5.412s-16.828,30.2-18.674,32.518-3.484,3.182-3.7,5.11a3.089,3.089,0,0,0,.859,2.741c3.368.523,14.006,17.722,10.092,23.552l-1.812,1.579a3.554,3.554,0,0,0,4.552,0c2.45-1.881,5.354-7.409,8.687-12.194s17.757-24.47,17.757-24.47Z" transform="translate(-265.454 -136.433)"/><path class="h" d="M321.611,177l-1.3.314s4.483,4.889,5.807,14.552c.708,5.319-.093,11.462-1.637,12.914,0,0,1.579.592,4.181-1.231a32.722,32.722,0,0,0,4.007-3.229,18.233,18.233,0,0,0-1.405-12.775C327.847,180.4,324.27,177.813,321.611,177Z" transform="translate(-265.509 -130.036)"/></g><g transform="translate(89.29)"><path class="n" d="M299.623,327.4,273.26,381.121a1.812,1.812,0,0,1-3.414-.441L258,321.66Z" transform="translate(-258 -11.098)"/><path class="g" d="M268.552,374.229a1.812,1.812,0,0,0,3.414.441l5.156-10.452h0a10.069,10.069,0,0,1-10.336-1.893l-.767-.685Z" transform="translate(-256.706 -4.648)"/><path class="d" d="M290.518,106.09l-.708,5.493-.883,6.631L258,356.441c3.763,5.586,9.964,8.977,16.5,10.452,9.941,2.323,20.7.337,25.085-4.738l30.845-238.076,1.638-12.67C330.561,119.562,289.054,114.277,290.518,106.09Z" transform="translate(-258 -45.88)"/><path class="o" d="M290.518,106.09l-.708,5.493-.883,6.631L258,356.441c3.763,5.586,9.964,8.977,16.5,10.452,9.941,2.323,20.7.337,25.085-4.738l30.845-238.076,1.638-12.67C330.561,119.562,289.054,114.277,290.518,106.09Z" transform="translate(-258 -45.88)"/><path class="p" d="M283.792,124.09l-1.568,12.275c-.569,3.542,6.713,6.794,15.353,8.71,11.486,2.567,25.55,1.161,26.328-3.484l1.161-9.035.36-3.24c-.767,4.645-14.842,6.109-26.328,3.542-8.28-1.847-15.341-4.947-15.341-8.315h0a.6.6,0,0,1,.035-.453Z" transform="translate(-254.097 -42.976)"/><path class="d" d="M283.254,128.435c-1.336,8.222,40.31,13.39,41.657,5.168l1.6-12.275c-1.336,8.222-42.97,3.054-41.646-5.168Z" transform="translate(-253.93 -44.255)"/><path class="p" d="M286.226,106.09l-1.591,12.124c-1.382,8.06,38.766,13.39,41.565,5.876a2.321,2.321,0,0,0,.128-.453l1.51-12.217C326.269,119.562,284.763,114.277,286.226,106.09Z" transform="translate(-253.708 -45.88)"/><path class="q" d="M328.325,123.35l1.638-12.67c-.685,3.681-9.535,5.365-19,4.506l-32.6,251.943-7.224,48.033L297.5,361.438h0Z" transform="translate(-255.88 -45.139)"/><path class="r" d="M334.375,67.313c0-.139.081-.267.093-.406.674-5.331-8.129-10.835-19.592-12.287s-21.334,1.672-22.066,6.968h0L286,114.452c-.592,3.484,6.6,6.771,15.167,8.722,11.462,2.6,25.55,1.266,26.444-3.391h0l6.713-51.61a2.449,2.449,0,0,1,.07-.708Z" transform="translate(-253.487 -54.242)"/><path class="q" d="M314.22,54.9l-8.78,69.3c9.384.766,18.326-.836,19-4.518h0l6.713-51.61a2.449,2.449,0,0,1,.07-.708V67.21c0-.139.081-.267.093-.406C331.954,61.856,324.451,56.781,314.22,54.9Z" transform="translate(-250.346 -54.139)"/><path class="n" d="M333.523,66.91c-.674,5.331-10.545,8.466-22.066,6.968s-20.266-6.968-19.592-12.287,10.545-8.478,22.066-6.968S334.2,61.579,333.523,66.91Z" transform="translate(-252.542 -54.245)"/></g><g transform="translate(184.472 95.364)"><path class="j" d="M406.368,217.731s.662,5.156-.186,6.48-16.665,5.516-37.233,3.484-26.781-7.421-27.5-8.629-.592-3.983,0-7.026Z" transform="translate(-339.798 -124.149)"/><path class="h" d="M341.075,163.5c1.161-18.965,9.419-25.852,17.885-25.654l22.217-1.487c4.75,1.231,19.592,4.8,26.061,6.736s6.527,16.445,5.029,26.049-4.645,16.909-5.563,33.064c.255,15.295,4.146,23.355.372,27.408-13.82,8.768-51.157,5.865-65.755-2.927-3.089-1.521.093-13.146-.209-22.553C340.6,187.993,340.727,169.621,341.075,163.5Z" transform="translate(-339.959 -136.36)"/><path class="j" d="M398.848,142.32c7.8.825,9.558,2.23,11.857,5.807s6.666,17.792,7.479,25.55c-4.576,12.984-23.064,6.968-23.064,6.968Z" transform="translate(-331.059 -135.398)"/><path class="s" d="M361.649,137.22s-7.63,6.968-5.087,13.39,13.565,7.607,22.17,1.463,7.851-13.332,7.851-13.332l-3.24-1a10.719,10.719,0,0,1-1.777,4.39c-1.359,1.626-18.5,8.489-18.849,10.452,0,0-2.137-4.947-2.323-6.852a23.6,23.6,0,0,1,1.161-7.166Z" transform="translate(-337.364 -136.221)"/></g><g transform="translate(191.878 31.214)"><path class="j" d="M347.616,101.385c-.209,3.658.232,6.318,2.915,8.849a108.178,108.178,0,0,0,15.33,12.38,62.366,62.366,0,0,0,8.7,4.727,34.84,34.84,0,0,0,9.535,2.241l-.906,8.234s1.092-2.125,2.567-4.645c1.277-2.183,6.713-13.344,6.713-13.344,2.137-4.39,4.727-8.954,4.8-13.936,0-3.31-1.428-6.852-4.39-8.327C393,90.678,387,85.126,381.516,83.094a32.076,32.076,0,0,0-14.807-1.754,23.54,23.54,0,0,0-13.518,6.074C351.158,89.226,348.069,92.965,347.616,101.385Z" transform="translate(-346.136 -81.122)"/><path class="m" d="M379.288,97.84a16.433,16.433,0,0,0,4.75,9.291,30.033,30.033,0,0,0-.8,10,5.457,5.457,0,0,0,.639,2.044,2.45,2.45,0,0,0,1.707,1.161c.952.128,1.382-.441,1.73-1.161a24.147,24.147,0,0,1,1.626-2.729,5.619,5.619,0,0,1,.917-1.034c1.545-1.266,5.993-2.683,7.746,2.067s-2.392,11.033-5.946,11.811c-6.144,1.347-7.224-2.834-7.224-2.834l-2.323,21.485c-3.484,3.24-13.936,8.013-17.78,11.869-1.452-2.857-4.866-8.129-1.161-14.017l.1-7.084a50.325,50.325,0,0,1-9.72-1.034c-3.1-.79-5.168-3.763-6.306-8.594-2.207-9.407.1-22,1.579-27.64a18.5,18.5,0,0,1,5.122-9,1.092,1.092,0,0,1,1.7.279,9.6,9.6,0,0,0,6.411,4.239c3.716.755,9.848.2,14.54-.964a2.207,2.207,0,0,1,2.694,1.847Z" transform="translate(-346.336 -79.343)"/><path class="t" d="M360.883,133.18c5.609-.2,9.639-.732,12.868-2.218a11.822,11.822,0,0,0,5.156-4.262s-.406,2.207-3.554,4.982c-3.554,3.124-14.494,3.484-14.494,3.484Z" transform="translate(-343.992 -73.768)"/><path class="j" d="M365.81,111.414a1.928,1.928,0,1,0,2.1-1.823,1.951,1.951,0,0,0-2.1,1.823Z" transform="translate(-343.194 -76.53)"/><path class="j" d="M367.77,104.271a12.682,12.682,0,0,1,4.878,3.484,3.159,3.159,0,0,0-.708-4.32,2.927,2.927,0,0,0-4.169.836Z" transform="translate(-342.877 -77.609)"/><path class="t" d="M365.7,121.32l-6.968,1.475a3.484,3.484,0,0,0,4.169,2.88A3.74,3.74,0,0,0,365.7,121.32Z" transform="translate(-344.336 -74.636)"/><path class="r" d="M364.5,122.64a3.229,3.229,0,0,0-3.182,2.857,3.356,3.356,0,0,0,1.161,0,3.681,3.681,0,0,0,2.752-2.683A3.484,3.484,0,0,0,364.5,122.64Z" transform="translate(-343.918 -74.423)"/><path class="j" d="M351.76,104.171a8.722,8.722,0,0,1,4.878,3.275,2.834,2.834,0,0,0-.778-4,3,3,0,0,0-4.1.72Z" transform="translate(-345.461 -77.602)"/><path class="j" d="M351.22,109.487a1.939,1.939,0,1,0,2.114-1.847,1.974,1.974,0,0,0-2.114,1.847Z" transform="translate(-345.548 -76.844)"/><path class="t" d="M361.987,107.18l-1.638,14.052L353.37,118Z" transform="translate(-345.201 -76.918)"/><path class="p" d="M361.79,153.369c2.543-1.347,5.389-5.133,7.6-1.9s3.74,6.968,5.551,6.5,8.025-5.551,10.557-10.185a21.474,21.474,0,0,0,2.265-8.129s-1.939-2.474-3.554-4.4c-1.8-2.125-2.079-2.683-3.623-2.892L380,137.667a8.048,8.048,0,0,1-3.612,5.087C371.859,145.565,365.39,146.645,361.79,153.369Z" transform="translate(-343.842 -72.855)"/><path class="p" d="M363.591,152.967c-1.37-1.428-5.493-5.7-7.92-5.168s-5.052,5.063-5.04,3.786,2.869-8.9,4.831-11.474,5.424-5.087,6.968-5.261v4.1a23.485,23.485,0,0,0-1.254,5.807C361.21,148.182,363.416,150.853,363.591,152.967Z" transform="translate(-345.643 -72.453)"/></g><g transform="translate(222.672 59.503)"><path class="m" d="M400.86,141.029a28.963,28.963,0,0,1-3.263-10.87c-.255-4.413-2.869-8.9-3.693-10.7s-2.845-4.645-4.285-7.189-1.87-3.3-4.46-4.251c-3.565-1.3-6.341-2.416-7.862-2.241s-1.649,1.161-.639,2.625,3.589,2.323,4.367,2.706,2.416,1.51,2.416,1.51l2.474,5.644a50.635,50.635,0,0,0-7.212.395c-1.254.406-2.764,3.159-2.567,4.854,0,0-2.381,1.045-1.939,3.287,0,0-1.6,1.44-.976,2.985a22.784,22.784,0,0,0,2.729,4.448c.592.743,3.345,1.405,3.345,1.405a25.678,25.678,0,0,0,3.4,5.807c1.707,1.835,3.031,1.974,4.645,5.447Z" transform="translate(-372.815 -105.435)"/><path class="t" d="M382.317,116.785c-1.254-.848-1.382-1.823-2.764-1.579s-1.161,1.823-1.161,1.823Z" transform="translate(-371.959 -103.918)"/><path class="t" d="M375.691,121.444a12.984,12.984,0,0,1,3.136-1.289c1.034-.29,3.136-.616,3.136-.616a14.493,14.493,0,0,0-4.181.209,11.542,11.542,0,0,0-2.067.592,3.483,3.483,0,0,0,0,.964Z" transform="translate(-372.395 -103.223)"/><path class="t" d="M375.426,122.837a9.813,9.813,0,0,0-1.452.43,3.936,3.936,0,0,0,0,.964c.952-.929,4.042-1.579,4.042-1.579A12.172,12.172,0,0,0,375.426,122.837Z" transform="translate(-372.675 -102.712)"/><path class="t" d="M379.378,133.064a27.688,27.688,0,0,0-1.974-5.052,2.1,2.1,0,0,0-2.764-.79c-.465.488,1.417.755,1.916,1.1A18.35,18.35,0,0,1,379.378,133.064Z" transform="translate(-372.574 -102.011)"/><path class="t" d="M387.035,118.138s-.778-1.684-2.23-4.4-1.394-2.323-3.17-3.066-5.122-1.963-5.865-3.24a5.15,5.15,0,0,0,.406.708c.987,1.463,3.589,2.323,4.367,2.706s2.416,1.51,2.416,1.51l2.543,5.807Z" transform="translate(-372.38 -105.166)"/><path class="m" d="M398.873,136.13c4.8,8.582,18.094,29.556,20.614,37.384,1.7,5.435.29,17.049-3.194,20.649s-10.917.476-16.178-6.213c-4.541-5.807-6.968-18.059-9.291-26.932s-5.435-18.965-5.435-18.965Z" transform="translate(-370.828 -100.536)"/><path class="t" d="M400.9,141.075a40.2,40.2,0,0,1-2.636-6.666,21.6,21.6,0,0,1-.65-3.484,17.906,17.906,0,0,0-.546-3.484,32.647,32.647,0,0,0-2.671-6.62,51.352,51.352,0,0,0-3.589-6.19c-.639-1.01-1.243-2.067-1.823-3.1a6.039,6.039,0,0,0-2.323-2.543,29.54,29.54,0,0,0-3.3-1.312c-1.161-.406-2.253-.825-3.391-1.161a4.994,4.994,0,0,0-3.345-.186c-.476.232-.43.825-.186,1.336a4.065,4.065,0,0,0,.987,1.382,11.2,11.2,0,0,0,3.054,1.707,19,19,0,0,1,3.124,1.835h0l2.45,5.644.116.267h-.29a62.91,62.91,0,0,0-6.457.244c-1.1,0-1.788.917-2.323,1.812a5.574,5.574,0,0,0-.836,3v.1h-.093a3.844,3.844,0,0,0-1.5,1.254,2.509,2.509,0,0,0-.372,1.858v.081h-.058a2.845,2.845,0,0,0-1.034,2.578,13.568,13.568,0,0,0,1.382,2.671c.267.43.557.859.848,1.266a2.961,2.961,0,0,0,.987,1.08,11.985,11.985,0,0,0,2.834,1.034h0v.058c.465,1.068.964,2.125,1.533,3.147a13.936,13.936,0,0,0,1.974,2.857c.79.859,1.777,1.51,2.567,2.381a10.776,10.776,0,0,1,1.858,2.961,11.289,11.289,0,0,0-1.893-2.927c-.8-.848-1.8-1.475-2.613-2.323a13.783,13.783,0,0,1-2.044-2.857,34.608,34.608,0,0,1-1.579-3.147l.07.07a13.367,13.367,0,0,1-2.9-1.045,3.646,3.646,0,0,1-1.057-1.161c-.3-.418-.592-.848-.859-1.277a12.776,12.776,0,0,1-1.428-2.741,3.147,3.147,0,0,1,1.092-2.869v.139a2.8,2.8,0,0,1,.406-2.079,4.2,4.2,0,0,1,1.614-1.37l-.093.163a5.888,5.888,0,0,1,.848-3.194,6.155,6.155,0,0,1,1.01-1.324,2.253,2.253,0,0,1,.72-.488,4.517,4.517,0,0,1,.836-.186c2.172-.244,4.343-.244,6.515-.279l-.174.267-2.485-5.633.07.093a18.9,18.9,0,0,0-3.054-1.788,11.335,11.335,0,0,1-3.171-1.8,4.646,4.646,0,0,1-1.08-1.521,2.171,2.171,0,0,1-.209-.964,1.08,1.08,0,0,1,.569-.871,3.008,3.008,0,0,1,1.87-.232,11.278,11.278,0,0,1,1.823.546c1.161.348,2.323.766,3.4,1.161a30.562,30.562,0,0,1,3.345,1.359,6.318,6.318,0,0,1,2.439,2.683c.592,1.045,1.161,2.079,1.8,3.1a50.82,50.82,0,0,1,3.577,6.225,33.435,33.435,0,0,1,2.636,6.678,17.7,17.7,0,0,1,.5,3.565,21.224,21.224,0,0,0,.6,3.484,38.925,38.925,0,0,0,2.6,6.736Z" transform="translate(-372.851 -105.481)"/></g></g><g transform="translate(205.523)"><g transform="translate(29.904)"><g transform="translate(8.387 10.253)"><path class="h" d="M396.768,89.412a2.555,2.555,0,1,1-1.266-3.38,2.555,2.555,0,0,1,1.266,3.38Z" transform="translate(-390.923 -56.83)"/><path class="g" d="M391.719,87.448c-1.161-1.591-.476-3.031,1.463-3.217a6.782,6.782,0,0,1,5.574,2.555c1.161,1.591.464,3.031-1.475,3.205a6.747,6.747,0,0,1-5.563-2.543Z" transform="translate(-391.042 -57.084)"/><path class="h" d="M391.969,86.731c-1.161-1.638-.488-3.124,1.521-3.31a6.968,6.968,0,0,1,5.737,2.625c1.161,1.638.488,3.124-1.521,3.321a6.968,6.968,0,0,1-5.737-2.636Z" transform="translate(-391.001 -57.215)"/><path class="g" d="M392.239,85.985c-1.161-1.7-.511-3.229,1.556-3.484a7.235,7.235,0,0,1,5.923,2.718c1.161,1.684.5,3.217-1.568,3.414a7.212,7.212,0,0,1-5.911-2.648Z" transform="translate(-390.958 -57.364)"/><path class="h" d="M392.515,85.175c-1.243-1.742-.523-3.31,1.614-3.484a7.433,7.433,0,0,1,6.1,2.787c1.231,1.742.511,3.321-1.614,3.484a7.444,7.444,0,0,1-6.1-2.787Z" transform="translate(-390.92 -57.494)"/><path class="g" d="M392.825,84.359c-1.254-1.777-.523-3.38,1.649-3.589a7.56,7.56,0,0,1,6.225,2.845c1.266,1.777.523,3.391-1.649,3.589a7.56,7.56,0,0,1-6.225-2.845Z" transform="translate(-390.87 -57.643)"/><path class="d" d="M408.5,61.952a12.171,12.171,0,0,0-16.131,6.039c-4.007,8.78,2.567,13.553.952,17.1a2.067,2.067,0,0,0,.395,2.067,6.585,6.585,0,0,0,5.4,2.439,2.09,2.09,0,0,0,1.835-1.057h0c1.614-3.484,9.535-1.672,13.541-10.452A12.159,12.159,0,0,0,408.5,61.952Z" transform="translate(-391.057 -60.855)"/><g class="u"><path class="v" d="M408.5,61.952a12.171,12.171,0,0,0-16.131,6.039c-4.007,8.78,2.567,13.553.952,17.1a2.067,2.067,0,0,0,.395,2.067,6.585,6.585,0,0,0,5.4,2.439,2.09,2.09,0,0,0,1.835-1.057h0c1.614-3.484,9.535-1.672,13.541-10.452A12.159,12.159,0,0,0,408.5,61.952Z" transform="translate(-391.057 -60.855)"/></g><path class="d" d="M394.176,83.643c-.825-1.161-.348-2.207,1.068-2.323a4.959,4.959,0,0,1,4.065,1.858c.824,1.161.337,2.207-1.08,2.323A4.936,4.936,0,0,1,394.176,83.643Z" transform="translate(-390.619 -57.554)"/><path class="v" d="M398.151,85.463a.418.418,0,0,1-.209-.546,29.208,29.208,0,0,1,3.67-5.969,14.645,14.645,0,0,1,1.347-1.5,5.961,5.961,0,0,1-.743-.906,7.327,7.327,0,0,1-.906-1.916,6.863,6.863,0,0,1-2.021.569,5.911,5.911,0,0,1-1.161,0,15.422,15.422,0,0,1-.244,2.009,29.52,29.52,0,0,1-2.125,6.666.418.418,0,0,1-.546.2.43.43,0,0,1-.2-.557,28.579,28.579,0,0,0,2.056-6.469,14.921,14.921,0,0,0,.244-2,2.578,2.578,0,0,1-1.812-1.579,1.324,1.324,0,0,1,.546-1.626,1.08,1.08,0,0,1,1.219,0,3.112,3.112,0,0,1,.871,2.474,4.728,4.728,0,0,0,1.068,0,6.782,6.782,0,0,0,1.951-.569,3.019,3.019,0,0,1,.418-2.323,1.161,1.161,0,0,1,2.009.917,3.019,3.019,0,0,1-1.51,1.858,6.319,6.319,0,0,0,.848,1.846,4.5,4.5,0,0,0,.685.813,3.17,3.17,0,0,1,2.45-.952,1.092,1.092,0,0,1,.825.894,1.336,1.336,0,0,1-.871,1.475,2.613,2.613,0,0,1-2.323-.337,14.142,14.142,0,0,0-1.359,1.5,29.659,29.659,0,0,0-3.554,5.807.418.418,0,0,1-.546.221Zm-1.44-12.9a.279.279,0,0,0-.279,0,.534.534,0,0,0-.174.65,1.672,1.672,0,0,0,1.022.952c-.07-.917-.29-1.44-.523-1.6Zm7.584,4.843a1.7,1.7,0,0,0,1.394.151.493.493,0,0,0,.372-.546c-.07-.325-.128-.244-.209-.267a2.322,2.322,0,0,0-1.556.662Zm-1.742-5.482a.256.256,0,0,0-.372.07,1.963,1.963,0,0,0-.279,1.359,1.986,1.986,0,0,0,.848-1.092.267.267,0,0,0-.2-.337Z" transform="translate(-390.424 -59.211)"/></g><path class="c" d="M407.894,58.943l-.209-.058a.8.8,0,0,1-.395-1.057l1.7-3.763a.8.8,0,0,1,1.452.65L408.73,58.49a.778.778,0,0,1-.836.453Z" transform="translate(-380.062 -51.773)"/><path class="c" d="M400.152,57.733a.8.8,0,0,1-.674-.708l-.418-4.123a.794.794,0,1,1,1.579-.163l.418,4.123a.79.79,0,0,1-.708.871A.557.557,0,0,1,400.152,57.733Z" transform="translate(-381.379 -52.026)"/><path class="c" d="M393.084,60.426a.824.824,0,0,1-.523-.314l-2.416-3.368a.778.778,0,0,1,.174-1.161.813.813,0,0,1,1.161.174l2.416,3.368a.79.79,0,0,1-.767,1.243Z" transform="translate(-382.847 -51.48)"/><path class="c" d="M388.289,66.3a.743.743,0,0,1-.209-.07l-3.774-1.7a.8.8,0,0,1,.65-1.452l3.786,1.707a.8.8,0,0,1-.453,1.51Z" transform="translate(-383.835 -50.254)"/><path class="c" d="M412.974,88.014a.755.755,0,0,1-.523-.314l-2.427-3.368a.812.812,0,0,1,1.289-.987l2.427,3.368a.79.79,0,0,1-.186,1.161.755.755,0,0,1-.581.139Z" transform="translate(-379.638 -47.026)"/><path class="c" d="M419.309,80.246l-.209-.058-3.774-1.707a.778.778,0,0,1-.395-1.045.79.79,0,0,1,1.045-.406l3.774,1.707a.79.79,0,0,1,.406,1.045A.813.813,0,0,1,419.309,80.246Z" transform="translate(-378.83 -48.003)"/><path class="c" d="M416.782,70.828a.8.8,0,0,1,0-1.579l4.123-.418a.794.794,0,1,1,.163,1.579l-4.123.418A.628.628,0,0,1,416.782,70.828Z" transform="translate(-378.626 -49.316)"/><path class="c" d="M413.992,63.736a.8.8,0,0,1-.348-1.428l3.368-2.427a.79.79,0,0,1,1.1.186.778.778,0,0,1-.174,1.1L414.585,63.6a.8.8,0,0,1-.592.139Z" transform="translate(-379.077 -50.783)"/></g><g transform="translate(50.853 51.864)"><path class="d" d="M403.786,104.833a.534.534,0,0,1-.255-.674l.2-.476a2.683,2.683,0,0,0-1.161-3.356l-.441-.267a.546.546,0,0,1-.2-.7.523.523,0,0,1,.674-.256l.581.151h0a2.694,2.694,0,0,0,3.345-1.161l.267-.441a.523.523,0,0,1,.7-.2h0a.523.523,0,0,1,.256.674l-.2.476a2.706,2.706,0,0,0,1.1,3.356l.441.267a.534.534,0,0,1-.476.952l-.476-.2a2.694,2.694,0,0,0-3.356,1.161l-.267.441a.534.534,0,0,1-.7.2Zm.6-4.262a3.809,3.809,0,0,1,.616,1.858,3.844,3.844,0,0,1,1.847-.616,3.7,3.7,0,0,1-.6-1.847,3.786,3.786,0,0,1-1.9.6Z" transform="translate(-401.873 -96.57)"/><path class="d" d="M416.561,103.148a3.414,3.414,0,1,1,4.587-1.51,3.414,3.414,0,0,1-4.587,1.51Zm2.6-5.145a2.323,2.323,0,1,0,1.182,1.362A2.323,2.323,0,0,0,419.162,98Z" transform="translate(-399.806 -96.685)"/><path class="d" d="M414.871,110.95a.523.523,0,0,1-.232-.72l.8-1.579a.527.527,0,0,1,.941.476l-.8,1.591A.534.534,0,0,1,414.871,110.95Z" transform="translate(-399.824 -94.801)"/><path class="d" d="M413.861,111.251l-1.591-.8a.534.534,0,0,1-.232-.708.523.523,0,0,1,.72-.232l1.579.8a.527.527,0,1,1-.476.941Z" transform="translate(-400.242 -94.626)"/><path class="d" d="M413.31,114.031a.546.546,0,0,1-.232-.72l.8-1.579a.532.532,0,1,1,.952.476l-.8,1.591a.534.534,0,0,1-.72.232Z" transform="translate(-400.074 -94.305)"/><path class="d" d="M416.942,112.8l-1.591-.8a.535.535,0,1,1,.488-.952l1.579.8a.532.532,0,1,1-.476.952Z" transform="translate(-399.746 -94.377)"/></g><g transform="translate(0 4.138)"><path class="d" d="M376.071,63.359a.523.523,0,0,1-.662-.29l-.209-.476a2.718,2.718,0,0,0-3.182-1.545l-.5.139a.534.534,0,1,1-.348-1.01l.476-.2h0a2.718,2.718,0,0,0,1.545-3.182l-.139-.5a.534.534,0,0,1,1.01-.348l.2.476a2.706,2.706,0,0,0,3.182,1.533l.5-.128a.534.534,0,1,1,.348,1.01l-.476.2a2.706,2.706,0,0,0-1.533,3.182l.128.5a.546.546,0,0,1-.337.639Zm-2.648-3.4a3.809,3.809,0,0,1,1.765.859,3.6,3.6,0,0,1,.848-1.754,3.716,3.716,0,0,1-1.754-.859,3.716,3.716,0,0,1-.859,1.754Z" transform="translate(-356.032 -55.59)"/><path class="d" d="M374.129,74.793a3.414,3.414,0,1,1,2.114-4.343,3.414,3.414,0,0,1-2.114,4.343Zm-1.893-5.447a2.349,2.349,0,1,0,2.991,1.446,2.349,2.349,0,0,0-2.991-1.446Z" transform="translate(-356.227 -53.563)"/><path class="d" d="M360.89,65.257a.534.534,0,0,1-.685-.325l-.581-1.684a.534.534,0,0,1,.325-.674.546.546,0,0,1,.685.325l.581,1.684A.534.534,0,0,1,360.89,65.257Z" transform="translate(-357.842 -54.467)"/><path class="d" d="M360.472,66.194l-1.684.581a.523.523,0,0,1-.674-.325.546.546,0,0,1,.325-.685l1.684-.581a.534.534,0,0,1,.348,1.01Z" transform="translate(-358.085 -54.046)"/><path class="d" d="M362.02,68.517a.534.534,0,0,1-.685-.325l-.581-1.672a.536.536,0,0,1,1.01-.36l.581,1.684a.523.523,0,0,1-.325.674Z" transform="translate(-357.66 -53.942)"/><path class="d" d="M363.732,65.065l-1.684.581a.534.534,0,0,1-.674-.325.546.546,0,0,1,.325-.685l1.684-.581a.523.523,0,0,1,.674.325.534.534,0,0,1-.325.685Z" transform="translate(-357.559 -54.229)"/></g></g></g></g></svg>